<svg width="500" height="250" viewBox="0 0 500 250" fill="none" xmlns="http://www.w3.org/2000/svg">
  <g id="Frame 1" clip-path="url(#clip0)">
    <rect width="500" height="250" fill="white" />
    <path id="name"
      d="M184.244 92.6648C182.455 81.4659 173.685 74.9205 162.614 74.9205C149.062 74.9205 139.065 85.071 139.065 101.818C139.065 118.565 149.011 128.716 162.614 128.716C174.119 128.716 182.531 121.506 184.244 111.151L176.267 111.125C174.912 117.824 169.287 121.506 162.665 121.506C153.69 121.506 146.915 114.628 146.915 101.818C146.915 89.1108 153.665 82.1307 162.69 82.1307C169.364 82.1307 174.963 85.8892 176.267 92.6648H184.244ZM212.849 75.6364H205.153L192.087 84.1761V91.7443L204.616 83.5625H204.923V128H212.849V75.6364ZM228.778 128H237.036L259.817 82.642V75.6364H225.198V82.4119H251.636V82.7955L228.778 128ZM266.043 128L270.85 114.142H291.305L296.086 128H304.472L285.629 75.6364H276.501L257.657 128H266.043ZM273.151 107.494L280.873 85.1477H281.282L289.004 107.494H273.151ZM354.298 75.6364H346.474V114.091H345.989L319.347 75.6364H312.034V128H319.935V89.5966H320.42L347.037 128H354.298V75.6364Z"
      fill="#4A4A4A" />
    <path id="description"
      d="M178.928 160.624C178.907 160.709 178.88 160.757 178.848 160.768C178.816 160.789 178.757 160.8 178.672 160.8H177.152C177.067 160.8 177.008 160.789 176.976 160.768C176.944 160.757 176.917 160.709 176.896 160.624L174.24 151.536L171.584 160.624C171.563 160.709 171.536 160.757 171.504 160.768C171.483 160.789 171.424 160.8 171.328 160.8H169.808C169.723 160.8 169.664 160.789 169.632 160.768C169.6 160.757 169.573 160.709 169.552 160.624L166.176 148.96C166.155 148.885 166.155 148.832 166.176 148.8C166.197 148.757 166.277 148.736 166.416 148.736H167.744C167.819 148.736 167.872 148.747 167.904 148.768C167.936 148.779 167.963 148.821 167.984 148.896L170.64 157.904L173.232 148.896C173.253 148.821 173.28 148.779 173.312 148.768C173.355 148.747 173.413 148.736 173.488 148.736H174.992C175.067 148.736 175.12 148.747 175.152 148.768C175.195 148.779 175.227 148.821 175.248 148.896L177.84 157.904L180.496 148.896C180.517 148.821 180.544 148.779 180.576 148.768C180.608 148.747 180.661 148.736 180.736 148.736H182.064C182.203 148.736 182.283 148.757 182.304 148.8C182.325 148.832 182.325 148.885 182.304 148.96L178.928 160.624ZM189.365 160.816C189.226 160.816 189.157 160.752 189.157 160.624V155.488C189.157 154.688 189.039 154.107 188.805 153.744C188.581 153.371 188.218 153.184 187.717 153.184C186.597 153.184 185.887 153.611 185.589 154.464V160.624C185.589 160.752 185.525 160.816 185.397 160.816H184.085C184.031 160.816 183.983 160.795 183.941 160.752C183.909 160.72 183.893 160.677 183.893 160.624V148.016C183.893 147.963 183.909 147.92 183.941 147.888C183.983 147.845 184.031 147.824 184.085 147.824H185.397C185.45 147.824 185.493 147.845 185.525 147.888C185.567 147.92 185.589 147.963 185.589 148.016V152.32C185.855 152.096 186.165 151.915 186.517 151.776C186.879 151.627 187.274 151.552 187.701 151.552C189.813 151.552 190.869 152.859 190.869 155.472V160.624C190.869 160.677 190.847 160.72 190.805 160.752C190.773 160.795 190.73 160.816 190.677 160.816H189.365ZM200.268 159.568C199.884 160.048 199.425 160.411 198.892 160.656C198.359 160.912 197.756 161.04 197.084 161.04C196.401 161.04 195.799 160.917 195.276 160.672C194.753 160.427 194.316 160.091 193.964 159.664C193.612 159.237 193.345 158.741 193.164 158.176C192.993 157.611 192.908 157.008 192.908 156.368C192.908 155.728 192.993 155.125 193.164 154.56C193.345 153.995 193.612 153.504 193.964 153.088C194.316 152.661 194.748 152.325 195.26 152.08C195.783 151.835 196.391 151.712 197.084 151.712C197.767 151.712 198.369 151.835 198.892 152.08C199.415 152.325 199.852 152.661 200.204 153.088C200.556 153.504 200.817 153.995 200.988 154.56C201.169 155.125 201.26 155.728 201.26 156.368C201.26 156.997 201.175 157.589 201.004 158.144C200.833 158.688 200.588 159.163 200.268 159.568ZM197.084 153.28C196.668 153.28 196.305 153.371 195.996 153.552C195.697 153.733 195.452 153.973 195.26 154.272C195.068 154.56 194.924 154.891 194.828 155.264C194.732 155.627 194.684 155.995 194.684 156.368C194.684 156.741 194.732 157.115 194.828 157.488C194.924 157.851 195.068 158.181 195.26 158.48C195.452 158.779 195.697 159.019 195.996 159.2C196.305 159.381 196.668 159.472 197.084 159.472C197.5 159.472 197.857 159.381 198.156 159.2C198.465 159.019 198.716 158.779 198.908 158.48C199.1 158.181 199.244 157.851 199.34 157.488C199.436 157.115 199.484 156.741 199.484 156.368C199.484 156.005 199.436 155.643 199.34 155.28C199.244 154.907 199.1 154.576 198.908 154.288C198.716 153.989 198.465 153.749 198.156 153.568C197.857 153.376 197.5 153.28 197.084 153.28ZM214.887 159.424C214.599 159.659 214.274 159.861 213.911 160.032C213.549 160.203 213.159 160.341 212.743 160.448C212.327 160.565 211.895 160.651 211.447 160.704C210.999 160.768 210.557 160.8 210.119 160.8H208.167C207.986 160.8 207.874 160.779 207.831 160.736C207.799 160.693 207.783 160.592 207.783 160.432V149.152C207.783 148.949 207.799 148.832 207.831 148.8C207.874 148.757 207.997 148.736 208.199 148.736H210.919C212.999 148.736 214.546 149.323 215.559 150.496C216.007 151.008 216.338 151.605 216.551 152.288C216.775 152.96 216.887 153.776 216.887 154.736C216.887 155.728 216.711 156.629 216.359 157.44C216.018 158.251 215.527 158.912 214.887 159.424ZM214.183 151.696C213.501 150.853 212.402 150.432 210.887 150.432H209.639V159.088H210.359C210.978 159.088 211.559 159.013 212.103 158.864C212.647 158.704 213.127 158.453 213.543 158.112C214.023 157.749 214.391 157.285 214.647 156.72C214.914 156.144 215.047 155.461 215.047 154.672C215.047 154.032 214.978 153.467 214.839 152.976C214.701 152.475 214.482 152.048 214.183 151.696ZM226.064 156.768C226.064 156.853 226.038 156.917 225.984 156.96C225.942 157.003 225.894 157.024 225.84 157.024H220.576C220.63 157.739 220.854 158.325 221.248 158.784C221.643 159.232 222.182 159.456 222.864 159.456C223.216 159.456 223.616 159.413 224.064 159.328C224.512 159.232 224.923 159.072 225.296 158.848C225.371 158.805 225.419 158.811 225.44 158.864C225.462 158.917 225.472 158.987 225.472 159.072V160.176C225.472 160.272 225.456 160.347 225.424 160.4C225.392 160.453 225.328 160.507 225.232 160.56C224.912 160.731 224.534 160.853 224.096 160.928C223.67 161.003 223.232 161.04 222.784 161.04C221.462 161.04 220.459 160.645 219.776 159.856C219.104 159.056 218.768 157.888 218.768 156.352C218.768 155.776 218.843 155.211 218.992 154.656C219.142 154.101 219.366 153.605 219.664 153.168C219.974 152.731 220.363 152.379 220.832 152.112C221.302 151.845 221.856 151.712 222.496 151.712C223.147 151.712 223.696 151.835 224.144 152.08C224.603 152.325 224.976 152.656 225.264 153.072C225.552 153.488 225.76 153.973 225.888 154.528C226.016 155.083 226.08 155.675 226.08 156.304C226.08 156.379 226.075 156.464 226.064 156.56C226.064 156.656 226.064 156.725 226.064 156.768ZM222.56 153.248C222.272 153.248 222.016 153.312 221.792 153.44C221.568 153.568 221.376 153.733 221.216 153.936C221.056 154.139 220.923 154.373 220.816 154.64C220.72 154.907 220.651 155.173 220.608 155.44H224.272C224.272 155.227 224.235 154.992 224.16 154.736C224.096 154.48 223.995 154.245 223.856 154.032C223.718 153.808 223.542 153.621 223.328 153.472C223.115 153.323 222.859 153.248 222.56 153.248ZM231.503 160.624C231.482 160.688 231.46 160.725 231.439 160.736C231.418 160.757 231.375 160.768 231.311 160.768H229.935C229.871 160.768 229.823 160.757 229.791 160.736C229.77 160.725 229.748 160.688 229.727 160.624L226.815 152.128C226.794 152.075 226.794 152.032 226.815 152C226.836 151.968 226.906 151.952 227.023 151.952H228.415C228.468 151.952 228.511 151.963 228.543 151.984C228.575 151.995 228.602 152.027 228.623 152.08L230.623 158.112L232.607 152.08C232.628 152.027 232.655 151.995 232.687 151.984C232.73 151.963 232.778 151.952 232.831 151.952H234.239C234.356 151.952 234.426 151.968 234.447 152C234.468 152.032 234.468 152.075 234.447 152.128L231.503 160.624ZM242.533 156.768C242.533 156.853 242.506 156.917 242.453 156.96C242.41 157.003 242.362 157.024 242.309 157.024H237.045C237.098 157.739 237.322 158.325 237.717 158.784C238.112 159.232 238.65 159.456 239.333 159.456C239.685 159.456 240.085 159.413 240.533 159.328C240.981 159.232 241.392 159.072 241.765 158.848C241.84 158.805 241.888 158.811 241.909 158.864C241.93 158.917 241.941 158.987 241.941 159.072V160.176C241.941 160.272 241.925 160.347 241.893 160.4C241.861 160.453 241.797 160.507 241.701 160.56C241.381 160.731 241.002 160.853 240.565 160.928C240.138 161.003 239.701 161.04 239.253 161.04C237.93 161.04 236.928 160.645 236.245 159.856C235.573 159.056 235.237 157.888 235.237 156.352C235.237 155.776 235.312 155.211 235.461 154.656C235.61 154.101 235.834 153.605 236.133 153.168C236.442 152.731 236.832 152.379 237.301 152.112C237.77 151.845 238.325 151.712 238.965 151.712C239.616 151.712 240.165 151.835 240.613 152.08C241.072 152.325 241.445 152.656 241.733 153.072C242.021 153.488 242.229 153.973 242.357 154.528C242.485 155.083 242.549 155.675 242.549 156.304C242.549 156.379 242.544 156.464 242.533 156.56C242.533 156.656 242.533 156.725 242.533 156.768ZM239.029 153.248C238.741 153.248 238.485 153.312 238.261 153.44C238.037 153.568 237.845 153.733 237.685 153.936C237.525 154.139 237.392 154.373 237.285 154.64C237.189 154.907 237.12 155.173 237.077 155.44H240.741C240.741 155.227 240.704 154.992 240.629 154.736C240.565 154.48 240.464 154.245 240.325 154.032C240.186 153.808 240.01 153.621 239.797 153.472C239.584 153.323 239.328 153.248 239.029 153.248ZM244.532 160.816C244.415 160.816 244.356 160.752 244.356 160.624V148.016C244.356 147.963 244.372 147.92 244.404 147.888C244.447 147.845 244.495 147.824 244.548 147.824H245.892C245.945 147.824 245.988 147.845 246.02 147.888C246.063 147.92 246.084 147.963 246.084 148.016V160.624C246.084 160.677 246.063 160.72 246.02 160.752C245.988 160.795 245.945 160.816 245.892 160.816H244.532ZM255.143 159.568C254.759 160.048 254.3 160.411 253.767 160.656C253.234 160.912 252.631 161.04 251.959 161.04C251.276 161.04 250.674 160.917 250.151 160.672C249.628 160.427 249.191 160.091 248.839 159.664C248.487 159.237 248.22 158.741 248.039 158.176C247.868 157.611 247.783 157.008 247.783 156.368C247.783 155.728 247.868 155.125 248.039 154.56C248.22 153.995 248.487 153.504 248.839 153.088C249.191 152.661 249.623 152.325 250.135 152.08C250.658 151.835 251.266 151.712 251.959 151.712C252.642 151.712 253.244 151.835 253.767 152.08C254.29 152.325 254.727 152.661 255.079 153.088C255.431 153.504 255.692 153.995 255.863 154.56C256.044 155.125 256.135 155.728 256.135 156.368C256.135 156.997 256.05 157.589 255.879 158.144C255.708 158.688 255.463 159.163 255.143 159.568ZM251.959 153.28C251.543 153.28 251.18 153.371 250.871 153.552C250.572 153.733 250.327 153.973 250.135 154.272C249.943 154.56 249.799 154.891 249.703 155.264C249.607 155.627 249.559 155.995 249.559 156.368C249.559 156.741 249.607 157.115 249.703 157.488C249.799 157.851 249.943 158.181 250.135 158.48C250.327 158.779 250.572 159.019 250.871 159.2C251.18 159.381 251.543 159.472 251.959 159.472C252.375 159.472 252.732 159.381 253.031 159.2C253.34 159.019 253.591 158.779 253.783 158.48C253.975 158.181 254.119 157.851 254.215 157.488C254.311 157.115 254.359 156.741 254.359 156.368C254.359 156.005 254.311 155.643 254.215 155.28C254.119 154.907 253.975 154.576 253.783 154.288C253.591 153.989 253.34 153.749 253.031 153.568C252.732 153.376 252.375 153.28 251.959 153.28ZM261.902 161.184C261.475 161.184 261.065 161.093 260.67 160.912C260.275 160.731 259.945 160.485 259.678 160.176V163.024C259.678 163.109 259.667 163.163 259.646 163.184C259.625 163.216 259.577 163.232 259.502 163.232H258.174C258.11 163.232 258.062 163.216 258.03 163.184C257.998 163.163 257.982 163.109 257.982 163.024V152.176C257.982 152.005 258.062 151.92 258.222 151.92H259.454C259.603 151.92 259.678 152.005 259.678 152.176V152.752C259.977 152.443 260.313 152.203 260.686 152.032C261.059 151.861 261.465 151.776 261.902 151.776C262.478 151.776 262.99 151.888 263.438 152.112C263.897 152.325 264.281 152.635 264.59 153.04C264.91 153.445 265.15 153.941 265.31 154.528C265.481 155.115 265.566 155.776 265.566 156.512C265.566 157.227 265.481 157.872 265.31 158.448C265.139 159.024 264.894 159.515 264.574 159.92C264.265 160.325 263.881 160.635 263.422 160.848C262.974 161.072 262.467 161.184 261.902 161.184ZM261.726 153.408C261.449 153.408 261.187 153.477 260.942 153.616C260.697 153.744 260.478 153.941 260.286 154.208C260.105 154.464 259.955 154.784 259.838 155.168C259.731 155.552 259.678 155.995 259.678 156.496C259.678 157.541 259.865 158.315 260.238 158.816C260.611 159.317 261.107 159.568 261.726 159.568C262.387 159.568 262.894 159.301 263.246 158.768C263.598 158.235 263.774 157.477 263.774 156.496C263.774 155.461 263.593 154.688 263.23 154.176C262.867 153.664 262.366 153.408 261.726 153.408ZM277.898 159.936C277.62 160.235 277.263 160.485 276.826 160.688C276.399 160.901 275.946 161.029 275.466 161.072C275.21 161.093 274.922 161.093 274.602 161.072C274.292 161.051 273.988 161.013 273.69 160.96C273.402 160.917 273.135 160.864 272.89 160.8C272.655 160.747 272.484 160.693 272.378 160.64C272.218 160.565 272.122 160.507 272.09 160.464C272.058 160.432 272.052 160.357 272.074 160.24L272.186 159.056C272.196 158.971 272.223 158.917 272.266 158.896C272.308 158.875 272.388 158.891 272.506 158.944C272.634 158.997 272.815 159.061 273.049 159.136C273.284 159.2 273.546 159.259 273.834 159.312C274.122 159.355 274.41 159.381 274.698 159.392C274.996 159.403 275.263 159.381 275.498 159.328C275.807 159.253 276.058 159.157 276.25 159.04C276.442 158.912 276.591 158.768 276.698 158.608C276.815 158.437 276.895 158.256 276.938 158.064C276.98 157.861 277.002 157.653 277.002 157.44C277.002 157.237 276.868 156.96 276.602 156.608C276.346 156.256 275.972 155.936 275.482 155.648C274.884 155.296 274.367 154.971 273.93 154.672C273.492 154.363 273.13 154.059 272.842 153.76C272.564 153.461 272.356 153.152 272.218 152.832C272.079 152.512 272.01 152.16 272.01 151.776C272.01 151.339 272.1 150.923 272.282 150.528C272.474 150.123 272.73 149.771 273.049 149.472C273.38 149.173 273.77 148.939 274.218 148.768C274.676 148.587 275.178 148.496 275.722 148.496C276.276 148.496 276.73 148.533 277.082 148.608C277.444 148.672 277.754 148.752 278.01 148.848C278.127 148.891 278.196 148.939 278.218 148.992C278.25 149.035 278.255 149.093 278.234 149.168L278.026 150.192C278.004 150.309 277.967 150.389 277.914 150.432C277.871 150.475 277.791 150.475 277.674 150.432C277.514 150.379 277.338 150.331 277.146 150.288C276.954 150.235 276.756 150.192 276.554 150.16C276.351 150.128 276.154 150.107 275.962 150.096C275.78 150.085 275.615 150.091 275.466 150.112C274.868 150.208 274.447 150.405 274.202 150.704C273.967 150.992 273.85 151.36 273.85 151.808C273.85 152.075 273.988 152.373 274.266 152.704C274.543 153.024 274.948 153.344 275.482 153.664C276.154 154.069 276.703 154.432 277.13 154.752C277.567 155.072 277.908 155.381 278.154 155.68C278.41 155.968 278.586 156.261 278.682 156.56C278.788 156.859 278.842 157.184 278.842 157.536C278.842 158.475 278.527 159.275 277.898 159.936ZM287.752 159.568C287.368 160.048 286.91 160.411 286.376 160.656C285.843 160.912 285.24 161.04 284.568 161.04C283.886 161.04 283.283 160.917 282.76 160.672C282.238 160.427 281.8 160.091 281.448 159.664C281.096 159.237 280.83 158.741 280.648 158.176C280.478 157.611 280.392 157.008 280.392 156.368C280.392 155.728 280.478 155.125 280.648 154.56C280.83 153.995 281.096 153.504 281.448 153.088C281.8 152.661 282.232 152.325 282.744 152.08C283.267 151.835 283.875 151.712 284.568 151.712C285.251 151.712 285.854 151.835 286.376 152.08C286.899 152.325 287.336 152.661 287.688 153.088C288.04 153.504 288.302 153.995 288.472 154.56C288.654 155.125 288.744 155.728 288.744 156.368C288.744 156.997 288.659 157.589 288.488 158.144C288.318 158.688 288.072 159.163 287.752 159.568ZM284.568 153.28C284.152 153.28 283.79 153.371 283.48 153.552C283.182 153.733 282.936 153.973 282.744 154.272C282.552 154.56 282.408 154.891 282.312 155.264C282.216 155.627 282.168 155.995 282.168 156.368C282.168 156.741 282.216 157.115 282.312 157.488C282.408 157.851 282.552 158.181 282.744 158.48C282.936 158.779 283.182 159.019 283.48 159.2C283.79 159.381 284.152 159.472 284.568 159.472C284.984 159.472 285.342 159.381 285.64 159.2C285.95 159.019 286.2 158.779 286.392 158.48C286.584 158.181 286.728 157.851 286.824 157.488C286.92 157.115 286.968 156.741 286.968 156.368C286.968 156.005 286.92 155.643 286.824 155.28C286.728 154.907 286.584 154.576 286.392 154.288C286.2 153.989 285.95 153.749 285.64 153.568C285.342 153.376 284.984 153.28 284.568 153.28ZM294.895 149.024C294.895 149.205 294.847 149.285 294.751 149.264C294.623 149.232 294.49 149.205 294.351 149.184C294.213 149.152 294.079 149.136 293.951 149.136C293.685 149.136 293.493 149.205 293.375 149.344C293.258 149.472 293.173 149.637 293.119 149.84C293.098 149.947 293.077 150.091 293.055 150.272C293.034 150.453 293.023 150.656 293.023 150.88V151.952H294.559C294.687 151.952 294.751 152.016 294.751 152.144V153.376C294.751 153.429 294.73 153.477 294.687 153.52C294.655 153.552 294.613 153.568 294.559 153.568H293.023V160.624C293.023 160.752 292.959 160.816 292.831 160.816H291.519C291.391 160.816 291.327 160.752 291.327 160.624V153.568H289.983C289.93 153.568 289.882 153.552 289.839 153.52C289.807 153.477 289.791 153.429 289.791 153.376V152.144C289.791 152.091 289.807 152.048 289.839 152.016C289.882 151.973 289.93 151.952 289.983 151.952H291.311V150.992C291.311 150.48 291.343 150.016 291.407 149.6C291.482 149.184 291.615 148.816 291.807 148.496C291.978 148.229 292.218 148.011 292.527 147.84C292.847 147.659 293.247 147.568 293.727 147.568C293.941 147.568 294.149 147.584 294.351 147.616C294.565 147.637 294.73 147.669 294.847 147.712C294.922 147.755 294.959 147.829 294.959 147.936L294.895 149.024ZM300.868 160.656C300.719 160.752 300.479 160.837 300.148 160.912C299.828 160.997 299.481 161.04 299.108 161.04C298.66 161.04 298.303 160.944 298.036 160.752C297.769 160.571 297.572 160.357 297.444 160.112C297.295 159.835 297.204 159.509 297.172 159.136C297.14 158.763 297.124 158.256 297.124 157.616V153.6H295.796C295.743 153.6 295.695 153.584 295.652 153.552C295.62 153.509 295.604 153.461 295.604 153.408V152.144C295.604 152.091 295.62 152.048 295.652 152.016C295.695 151.973 295.743 151.952 295.796 151.952H297.124V149.712C297.124 149.659 297.145 149.616 297.188 149.584C297.231 149.541 297.279 149.52 297.332 149.52H298.628C298.692 149.52 298.74 149.541 298.772 149.584C298.815 149.616 298.836 149.659 298.836 149.712V151.952H300.372C300.425 151.952 300.468 151.973 300.5 152.016C300.543 152.048 300.564 152.091 300.564 152.144V153.408C300.564 153.461 300.543 153.509 300.5 153.552C300.468 153.584 300.425 153.6 300.372 153.6H298.836V157.728C298.836 158.453 298.852 158.912 298.884 159.104C298.927 159.296 299.028 159.413 299.188 159.456C299.348 159.499 299.529 159.509 299.732 159.488C299.871 159.467 300.025 159.44 300.196 159.408C300.367 159.365 300.516 159.317 300.644 159.264C300.697 159.243 300.735 159.243 300.756 159.264C300.777 159.275 300.799 159.323 300.82 159.408L300.948 160.464C300.959 160.539 300.932 160.603 300.868 160.656ZM311.656 160.624C311.635 160.688 311.608 160.725 311.576 160.736C311.555 160.757 311.518 160.768 311.464 160.768H309.976C309.923 160.768 309.88 160.757 309.848 160.736C309.827 160.725 309.8 160.688 309.768 160.624L307.784 154.608L305.784 160.624C305.752 160.688 305.72 160.725 305.688 160.736C305.656 160.757 305.614 160.768 305.56 160.768H304.088C304.046 160.768 304.008 160.757 303.976 160.736C303.944 160.725 303.918 160.688 303.896 160.624L301.048 152.128C301.027 152.075 301.022 152.032 301.032 152C301.054 151.968 301.123 151.952 301.24 151.952H302.632C302.696 151.952 302.739 151.963 302.76 151.984C302.792 151.995 302.819 152.027 302.84 152.08L304.824 158.336L306.84 152.08C306.862 151.995 306.926 151.952 307.032 151.952H308.52C308.627 151.952 308.691 151.995 308.712 152.08L310.728 158.336L312.712 152.08C312.734 151.995 312.798 151.952 312.904 151.952H314.328C314.435 151.952 314.499 151.968 314.52 152C314.542 152.032 314.542 152.075 314.52 152.128L311.656 160.624ZM320.707 160.784C320.632 160.784 320.584 160.773 320.563 160.752C320.542 160.741 320.531 160.704 320.531 160.64V159.92C320.264 160.293 319.923 160.571 319.507 160.752C319.102 160.944 318.691 161.04 318.275 161.04C317.838 161.04 317.432 160.981 317.059 160.864C316.696 160.747 316.382 160.571 316.115 160.336C315.859 160.101 315.656 159.813 315.507 159.472C315.358 159.12 315.283 158.715 315.283 158.256C315.283 157.712 315.379 157.237 315.571 156.832C315.763 156.416 316.062 156.075 316.467 155.808C316.883 155.531 317.411 155.328 318.051 155.2C318.691 155.061 319.464 154.992 320.371 154.992C320.371 154.789 320.35 154.587 320.307 154.384C320.264 154.181 320.19 154 320.083 153.84C319.987 153.68 319.848 153.552 319.667 153.456C319.486 153.349 319.256 153.296 318.979 153.296C318.499 153.296 318.062 153.36 317.667 153.488C317.283 153.616 316.92 153.787 316.579 154C316.408 154.107 316.291 154.155 316.227 154.144C316.174 154.133 316.147 154.075 316.147 153.968V152.752C316.147 152.709 316.142 152.667 316.131 152.624C316.131 152.571 316.142 152.528 316.163 152.496C316.195 152.453 316.275 152.395 316.403 152.32C316.766 152.139 317.134 151.989 317.507 151.872C317.891 151.755 318.371 151.696 318.947 151.696C320.024 151.696 320.819 151.957 321.331 152.48C321.854 153.003 322.115 153.824 322.115 154.944V158.736C322.115 159.035 322.115 159.349 322.115 159.68C322.126 160 322.147 160.283 322.179 160.528C322.2 160.699 322.142 160.784 322.003 160.784H320.707ZM320.419 156.512C319.235 156.512 318.387 156.656 317.875 156.944C317.363 157.232 317.107 157.664 317.107 158.24C317.107 158.645 317.224 158.949 317.459 159.152C317.694 159.355 318.008 159.456 318.403 159.456C319.011 159.456 319.496 159.232 319.859 158.784C320.232 158.336 320.419 157.637 320.419 156.688V156.512ZM328.866 153.552C328.652 153.499 328.466 153.467 328.306 153.456C328.146 153.435 328.007 153.435 327.89 153.456C327.57 153.52 327.308 153.659 327.106 153.872C326.914 154.075 326.764 154.315 326.658 154.592C326.562 154.869 326.498 155.168 326.466 155.488C326.434 155.808 326.418 156.112 326.418 156.4V160.56C326.418 160.709 326.354 160.784 326.226 160.784H324.898C324.78 160.784 324.722 160.704 324.722 160.544V154.096C324.722 153.755 324.716 153.413 324.706 153.072C324.695 152.731 324.69 152.432 324.69 152.176C324.69 152.08 324.706 152.021 324.738 152C324.77 151.968 324.823 151.952 324.898 151.952H326.226C326.3 151.952 326.343 151.963 326.354 151.984C326.364 152.005 326.37 152.043 326.37 152.096V152.8C326.444 152.672 326.54 152.544 326.658 152.416C326.786 152.288 326.919 152.176 327.058 152.08C327.207 151.973 327.356 151.893 327.506 151.84C327.655 151.776 327.794 151.744 327.922 151.744C328.124 151.744 328.306 151.749 328.466 151.76C328.636 151.76 328.812 151.813 328.994 151.92C329.047 151.941 329.079 151.979 329.09 152.032C329.1 152.075 329.106 152.117 329.106 152.16V153.36C329.106 153.403 329.09 153.451 329.058 153.504C329.026 153.557 328.962 153.573 328.866 153.552ZM337.158 156.768C337.158 156.853 337.131 156.917 337.078 156.96C337.035 157.003 336.987 157.024 336.934 157.024H331.67C331.723 157.739 331.947 158.325 332.342 158.784C332.737 159.232 333.275 159.456 333.958 159.456C334.31 159.456 334.71 159.413 335.158 159.328C335.606 159.232 336.017 159.072 336.39 158.848C336.465 158.805 336.513 158.811 336.534 158.864C336.555 158.917 336.566 158.987 336.566 159.072V160.176C336.566 160.272 336.55 160.347 336.518 160.4C336.486 160.453 336.422 160.507 336.326 160.56C336.006 160.731 335.627 160.853 335.19 160.928C334.763 161.003 334.326 161.04 333.878 161.04C332.555 161.04 331.553 160.645 330.87 159.856C330.198 159.056 329.862 157.888 329.862 156.352C329.862 155.776 329.937 155.211 330.086 154.656C330.235 154.101 330.459 153.605 330.758 153.168C331.067 152.731 331.457 152.379 331.926 152.112C332.395 151.845 332.95 151.712 333.59 151.712C334.241 151.712 334.79 151.835 335.238 152.08C335.697 152.325 336.07 152.656 336.358 153.072C336.646 153.488 336.854 153.973 336.982 154.528C337.11 155.083 337.174 155.675 337.174 156.304C337.174 156.379 337.169 156.464 337.158 156.56C337.158 156.656 337.158 156.725 337.158 156.768ZM333.654 153.248C333.366 153.248 333.11 153.312 332.886 153.44C332.662 153.568 332.47 153.733 332.31 153.936C332.15 154.139 332.017 154.373 331.91 154.64C331.814 154.907 331.745 155.173 331.702 155.44H335.366C335.366 155.227 335.329 154.992 335.254 154.736C335.19 154.48 335.089 154.245 334.95 154.032C334.811 153.808 334.635 153.621 334.422 153.472C334.209 153.323 333.953 153.248 333.654 153.248Z"
      fill="#6B6C6D" fill-opacity="0.81" />
    <path id="triangle" d="M281 84L289.66 108H272.34L281 84Z" fill="#87C4E7" />
    <path id="Polygon 1" d="M234 -0.5L0.5 86.5V-0.5H234Z" fill="#9EC0E8" />
    <path id="Polygon 2" d="M266.32 249.867L499.903 163.091L499.82 250.091L266.32 249.867Z" fill="#87CDD1"
      fill-opacity="0.49" />
  </g>
  <defs>
    <clipPath id="clip0">
      <rect width="500" height="250" fill="white" />
    </clipPath>
  </defs>
  <style>
    @keyframes rise {
      from {
        opacity: 0;
        transform: translateY(30%)
      }

      to {
        opacity: 1;
        transform: translateY(0)
      }
    }

    @keyframes fadeIn {
      from {
        opacity: 0;
      }

      to {
        opacity: 1;
      }
    }

    @keyframes fadeLeft {
      from {
        opacity: 0;
        transform: translateX(30%);
      }

      to {
        opacity: 1;
        transform: translateX(0);
      }
    }

    #name {
      animation: 1s ease fadeIn
    }

    #triangle {
      animation: 2s 1s ease-out rise forwards;
      opacity: 0;
    }

    #triangle:hover {
      fill: red !important;
    }

    #description {
      animation: 1s 2s ease fadeLeft forwards;
      opacity: 0;
    }
  </style>
</svg>